<?xml version="1.0" standalone="no"?><!DOCTYPE svg PUBLIC "-//W3C//DTD SVG 1.1//EN" "http://www.w3.org/Graphics/SVG/1.1/DTD/svg11.dtd"><svg t="1740323817712" class="icon" viewBox="0 0 1024 1024" version="1.1" xmlns="http://www.w3.org/2000/svg" p-id="2125" xmlns:xlink="http://www.w3.org/1999/xlink" width="32" height="32"><path d="M911.7696 672.5632L649.6256 200.704C614.4 137.216 565.6576 102.4 512 102.4s-102.4 34.816-137.6256 98.304l-262.144 471.8592c-33.1776 60.2112-36.864 117.9648-10.24 163.4304 26.624 45.4656 79.0528 70.4512 147.8656 70.4512h524.288c68.8128 0 121.2416-24.9856 147.8656-70.4512 26.624-45.4656 22.9376-103.6288-10.24-163.4304zM481.28 389.12c0-16.7936 13.9264-30.72 30.72-30.72s30.72 13.9264 30.72 30.72v204.8c0 16.7936-13.9264 30.72-30.72 30.72s-30.72-13.9264-30.72-30.72v-204.8z m59.8016 356.7616l-6.144 4.9152c-2.4576 1.6384-4.9152 2.8672-7.3728 3.6864-2.4576 1.2288-4.9152 2.048-7.7824 2.4576-2.4576 0.4096-5.3248 0.8192-7.7824 0.8192s-5.3248-0.4096-8.192-0.8192a26.05056 26.05056 0 0 1-7.3728-2.4576 31.00672 31.00672 0 0 1-7.3728-3.6864l-6.144-4.9152c-7.3728-7.7824-11.8784-18.432-11.8784-29.0816 0-10.6496 4.5056-21.2992 11.8784-29.0816l6.144-4.9152c2.4576-1.6384 4.9152-2.8672 7.3728-3.6864 2.4576-1.2288 4.9152-2.048 7.3728-2.4576 5.3248-1.2288 11.0592-1.2288 15.9744 0 2.8672 0.4096 5.3248 1.2288 7.7824 2.4576 2.4576 0.8192 4.9152 2.048 7.3728 3.6864l6.144 4.9152c7.3728 7.7824 11.8784 18.432 11.8784 29.0816 0 10.6496-4.5056 21.2992-11.8784 29.0816z" fill="#e6e6e6" p-id="2126"></path></svg>