<?xml version="1.0" standalone="no"?><!DOCTYPE svg PUBLIC "-//W3C//DTD SVG 1.1//EN" "http://www.w3.org/Graphics/SVG/1.1/DTD/svg11.dtd"><svg t="1740724260402" class="icon" viewBox="0 0 1024 1024" version="1.1" xmlns="http://www.w3.org/2000/svg" p-id="2433" xmlns:xlink="http://www.w3.org/1999/xlink" width="32" height="32"><path d="M630.30303 402.424242q0 35.878788-15.030303 64.484849t-42.181818 44.606061Q545.939394 527.515152 512 527.515152t-60.606061-16.484849q-26.666667-16.484848-41.696969-44.606061T394.666667 402.424242V125.090909q0-35.878788 15.030303-64t41.696969-44.606061Q478.060606 0 512 0t61.090909 16.484848q27.151515 16.484848 42.181818 44.606061T630.30303 125.090909v277.333333zM482.909091 746.666667v-85.333334q-69.818182-5.818182-123.151515-40.727272t-82.424243-91.636364Q248.242424 472.242424 248.242424 402.424242v-91.151515q0-11.636364 8.727273-19.878788t19.878788-8.727272Q288 282.181818 296.727273 290.909091t8.727272 20.363636v91.151515q0 58.181818 26.181819 105.212122t73.696969 73.696969Q452.848485 608 512.484848 608T619.636364 581.333333q47.515152-26.666667 73.696969-73.696969T719.515152 402.424242v-91.151515q0-11.636364 8.242424-20.363636t19.878788-8.727273q11.636364 0 20.363636 8.727273t8.727273 20.363636v91.151515q0 69.818182-29.090909 126.545455T665.212121 620.606061q-53.333333 34.909091-123.151515 40.727272v85.333334h152.242424q10.666667 0 19.878788 8.727272t9.212121 20.363637q0 11.636364-8.727272 20.363636t-20.363637 8.727273H330.666667q-11.636364 0-20.363637-8.727273t-8.727272-20.363636q0-11.636364 8.727272-20.363637t20.363637-8.727272h152.242424z" fill="#e6e6e6" p-id="2434"></path></svg>