<?xml version="1.0" standalone="no"?><!DOCTYPE svg PUBLIC "-//W3C//DTD SVG 1.1//EN" "http://www.w3.org/Graphics/SVG/1.1/DTD/svg11.dtd"><svg t="1740724268328" class="icon" viewBox="0 0 1024 1024" version="1.1" xmlns="http://www.w3.org/2000/svg" p-id="2691" xmlns:xlink="http://www.w3.org/1999/xlink" width="32" height="32"><path d="M374.172512 127.150711v-5.823697q0-34.94218 15.04455-62.604739t41.736493-43.192417Q457.645498 0 491.617062 0t60.663507 16.500474q26.691943 16.500474 41.736493 44.648341T609.061611 125.209479v236.830331L374.172512 127.150711zM166.460664 70.854976q-8.735545-8.735545-8.735546-21.353554t8.735546-21.353555q8.735545-8.735545 21.353554-8.735545t21.353555 8.735545l649.34218 649.34218q8.735545 8.735545 8.735545 21.353555t-8.735545 20.868246q-8.735545 8.250237-20.868247 8.250237t-20.868246-8.735545L166.460664 70.854976z m143.651184 675.548815h151.416114v-85.414218q-69.88436-5.823697-122.782938-40.765876T256.727962 528.985782q-29.118483-56.295735-29.118483-127.150711v-90.267298q0-13.588626 7.764929-21.353555t20.382938-7.764929q12.618009 0 20.868246 7.764929t8.250237 21.353555v90.267298q0 59.207583 26.206635 105.797156t73.281517 73.281517Q431.438863 607.605687 491.617062 607.605687q66.001896 0 115.503317-33.000948l40.765877 40.765877q-54.354502 38.824645-127.150711 45.618957v84.443602h151.416114q11.647393 0 20.382938 9.220853t8.735545 20.868247q0 11.647393-8.735545 20.382938t-20.382938 8.735545H310.111848q-11.647393 0-20.382938-8.735545t-8.735545-20.382938q0-11.647393 8.735545-20.868247t20.382938-9.220853v0.970616z m444.54218-344.56872q0 48.530806-14.559241 92.208531l-46.589574-46.589574q3.882464-22.324171 4.853081-45.618957v-90.267298q0-13.588626 7.764929-21.353555t20.382938-7.764929q12.618009 0 20.382939 7.764929t7.764928 21.353555v90.267298zM545.000948 512.485308q-24.265403 14.559242-53.383886 14.559242-33.971564 0-61.148816-16.015166t-42.221801-44.648341Q373.201896 437.747867 374.172512 402.805687v-61.148815l170.828436 170.828436z" fill="#e6e6e6" p-id="2692"></path></svg>