<?xml version="1.0" standalone="no"?><!DOCTYPE svg PUBLIC "-//W3C//DTD SVG 1.1//EN" "http://www.w3.org/Graphics/SVG/1.1/DTD/svg11.dtd"><svg t="1740724501309" class="icon" viewBox="0 0 1024 1024" version="1.1" xmlns="http://www.w3.org/2000/svg" p-id="15658" xmlns:xlink="http://www.w3.org/1999/xlink" width="32" height="32"><path d="M640 226.998857l-151.625143 151.661714A18.285714 18.285714 0 0 1 475.428571 384h-18.285714a18.285714 18.285714 0 1 1 0-36.571429h10.715429l177.481143-177.517714A18.285714 18.285714 0 0 1 676.571429 182.857143v365.714286a18.285714 18.285714 0 1 1-36.571429 0V226.998857zM640 768a18.285714 18.285714 0 1 1 36.571429 0v73.142857a18.285714 18.285714 0 0 1-31.232 12.946286L467.858286 676.571429H256a18.285714 18.285714 0 0 1-18.285714-18.285715v-292.571428a18.285714 18.285714 0 0 1 36.571428 0v274.285714H475.428571a18.285714 18.285714 0 0 1 12.946286 5.339429l151.625143 151.661714V768zM169.910857 195.803429a18.285714 18.285714 0 1 1 25.892572-25.892572l658.285714 658.285714a18.285714 18.285714 0 0 1-25.892572 25.892572l-658.285714-658.285714z" fill="#e6e6e6" p-id="15659"></path></svg>