<?xml version="1.0" standalone="no"?><!DOCTYPE svg PUBLIC "-//W3C//DTD SVG 1.1//EN" "http://www.w3.org/Graphics/SVG/1.1/DTD/svg11.dtd"><svg t="1740724494295" class="icon" viewBox="0 0 1024 1024" version="1.1" xmlns="http://www.w3.org/2000/svg" p-id="15400" xmlns:xlink="http://www.w3.org/1999/xlink" width="32" height="32"><path d="M164.571429 384v256H365.714286a18.285714 18.285714 0 0 1 12.946285 5.339429l151.625143 151.661714V226.998857l-151.625143 151.661714A18.285714 18.285714 0 0 1 365.714286 384H164.571429z m-18.285715 292.571429a18.285714 18.285714 0 0 1-18.285714-18.285715v-292.571428a18.285714 18.285714 0 0 1 18.285714-18.285715h211.858286l177.481143-177.517714A18.285714 18.285714 0 0 1 566.857143 182.857143v658.285714a18.285714 18.285714 0 0 1-31.232 12.946286L358.144 676.571429H146.285714z m669.366857 29.366857a18.285714 18.285714 0 0 1-25.856-25.856A236.873143 236.873143 0 0 0 859.428571 512a236.873143 236.873143 0 0 0-69.632-168.082286 18.285714 18.285714 0 1 1 25.856-25.856A273.444571 273.444571 0 0 1 896 512c0 73.728-29.257143 142.848-80.347429 193.938286z m-103.424-103.424a18.285714 18.285714 0 1 1-25.856-25.856A91.062857 91.062857 0 0 0 713.142857 512a91.062857 91.062857 0 0 0-26.770286-64.658286 18.285714 18.285714 0 1 1 25.856-25.856A127.634286 127.634286 0 0 1 749.714286 512a127.634286 127.634286 0 0 1-37.485715 90.514286z" fill="#e6e6e6" p-id="15401"></path></svg>